<svg width="232" height="232" viewBox="0 0 232 232" fill="none" xmlns="http://www.w3.org/2000/svg">
  <!-- Background with gradient -->
  <rect width="232" height="232" rx="70" fill="#FF5A5F"/>
  
  <!-- Simple Rocket Shape -->
  <path fill-rule="evenodd" clip-rule="evenodd" d="M116 52C116 52 92 88 92 136C92 150 96 168 116 188C136 168 140 150 140 136C140 88 116 52 116 52Z" fill="white"/>
  
  <!-- Rocket Window -->
  <circle cx="116" cy="116" r="12" fill="#FF5A5F"/>
  <circle cx="116" cy="116" r="8" fill="white"/>
  
  <!-- Rocket Fins - Simplified -->
  <path d="M92 136C92 136 74 146 64 156C64 172 76 180 92 180C90 160 92 136 92 136Z" fill="white"/>
  <path d="M140 136C140 136 158 146 168 156C168 172 156 180 140 180C142 160 140 136 140 136Z" fill="white"/>
  
  <!-- Rocket Thrust - Simplified -->
  <path d="M116 188C110 196 104 204 96 204C100 204 108 202 116 200C124 202 132 204 136 204C128 204 122 196 116 188Z" fill="#FFB400"/>
  
  <!-- REST API - Airbnb Style Wordmark -->
  <path d="M76.6816 62V58.6582H78.4531C79.1562 58.6582 79.6777 58.4805 80.0176 58.125C80.3613 57.7695 80.5332 57.3066 80.5332 56.7363C80.5332 56.1543 80.3613 55.7051 80.0176 55.3887C79.6777 55.0684 79.1562 54.9082 78.4531 54.9082H75.2793V62H76.6816ZM78.4531 57.4023H76.6816V56.1641H78.4531C78.7773 56.1641 79.0176 56.2383 79.1738 56.3867C79.334 56.5312 79.4141 56.7266 79.4141 56.9727C79.4141 57.2148 79.334 57.4102 79.1738 57.5586C79.0176 57.7031 78.7773 57.7773 78.4531 57.7773L76.6211 57.4023H78.4531Z" fill="white"/>
  <path d="M85.0137 62.1172C86.0449 62.1172 86.8555 61.8242 87.4453 61.2383C88.0391 60.6523 88.3359 59.8379 88.3359 58.7949V54.9082H86.9336V58.7344C86.9336 59.3828 86.7656 59.8809 86.4297 60.2285C86.0977 60.5762 85.6172 60.75 84.9883 60.75C84.3477 60.75 83.8633 60.5762 83.5352 60.2285C83.2109 59.8809 83.0488 59.3828 83.0488 58.7344V54.9082H81.6406V58.7949C81.6406 59.8379 81.9375 60.6523 82.5312 61.2383C83.125 61.8242 83.9395 62.1172 85.0137 62.1172Z" fill="white"/>
  <path d="M96.1191 59.3027H92.3027L91.5273 62H90.0488L93.2754 54.9082H95.1582L98.3789 62H96.8887L96.1191 59.3027ZM95.6484 58.0293L94.2109 54.8301L92.7734 58.0293H95.6484Z" fill="white"/>
  <path d="M105.533 56.1641V54.9082H99.8633V56.1641H101.969V62H103.428V56.1641H105.533Z" fill="white"/>
  <path d="M115.361 62H116.77V54.9082H115.361V57.8086H111.738V54.9082H110.33V62H111.738V59.0645H115.361V62Z" fill="white"/>
  <path d="M126.029 62L123.229 58.4922L125.96 54.9082H124.337L122.169 57.7539L119.994 54.9082H118.34L121.078 58.5117L118.34 62H119.963L122.162 59.0586L124.368 62H126.029Z" fill="white"/>
  
  <!-- Restify Text -->
  <path d="M94.6 219H97.96C100.125 219 101.203 217.773 101.203 216.067C101.203 214.36 100.125 213.133 97.96 213.133H94.6V219ZM97.96 217.96H95.76V214.173H97.96C99.427 214.173 100.043 215.053 100.043 216.067C100.043 217.08 99.427 217.96 97.96 217.96Z" fill="white"/>
  <path d="M106.237 219.133C108.672 219.133 110.16 217.467 110.16 216.067C110.16 214.667 108.672 213 106.237 213H102.957V219H104.117V213.987H106.237C108.032 213.987 109.032 215.133 109.032 216.067C109.032 217 108.032 218.147 106.237 218.147H102.957V219.133H106.237Z" fill="white"/>
  <path d="M111.394 219H117.661V218.013H112.554V216.387H117.368V215.4H112.554V213.987H117.661V213H111.394V219Z" fill="white"/>
  <path d="M123.042 219V218.013H119.442V213H118.282V219H123.042Z" fill="white"/>
  <path d="M123.726 219H124.886V213H123.726V219Z" fill="white"/>
  <path d="M130.661 219.133C132.954 219.133 134.635 217.467 134.635 216C134.635 214.533 132.954 212.867 130.661 212.867C128.367 212.867 126.687 214.533 126.687 216C126.687 217.467 128.367 219.133 130.661 219.133ZM130.661 218.133C128.9 218.133 127.834 217.053 127.834 216C127.834 214.947 128.9 213.867 130.661 213.867C132.421 213.867 133.488 214.947 133.488 216C133.488 217.053 132.421 218.133 130.661 218.133Z" fill="white"/>
  <path d="M135.96 213L138.367 218.2L140.767 213H142.08L139.08 219H137.654L134.647 213H135.96Z" fill="white"/>
</svg>
